# xmcd
#
# Track frame offsets:
#	150
#	13969
#	26896
#	39678
#	52873
#	71622
#	85208
#	99025
#	111952
#	124734
#	137929
#	156678
#
# Disc length: 2278 seconds
#
# Revision: 0
# Processed by: cddbd v1.5.1PL2 Copyright (c) Steve Scherf et al.
# Submitted via: dBpowerAMP V4.0
#
DISCID=a708e40c
DTITLE=Various Artist - Karaoke Party! Country Classics
DYEAR=1900
DGENRE=Karaoke
TTITLE0=Hey Good Lookin' - Hank Williams
TTITLE1=Stand By Your Man - Tammy Wynette
TTITLE2=Crazy - Patsy Cline
TTITLE3=Okie from Muskogee - Merle Haggard
TTITLE4=Lady - Kenny Rogers
TTITLE5=I Fall to Pieces - Patsy Cline
TTITLE6=Hey Good Lookin' - Hank Williams (full version)
TTITLE7=Stand By Your Man - Tammy Wynette (full version)
TTITLE8=Crazy - Patsy Cline (full version)
TTITLE9=Okie from Muskogee - Merle Haggard (full version)
TTITLE10=Lady - Kenny Rogers (full version)
TTITLE11=I Fall to Pieces - Patsy Cline (full version)
EXTD=
EXTT0=
EXTT1=
EXTT2=
EXTT3=
EXTT4=
EXTT5=
EXTT6=
EXTT7=
EXTT8=
EXTT9=
EXTT10=
EXTT11=
PLAYORDER=
